<svg width="32" height="38" viewBox="0 0 32 38" fill="none" xmlns="http://www.w3.org/2000/svg">
<g id="Mask group">
<mask id="mask0_35_31" style="mask-type:luminance" maskUnits="userSpaceOnUse" x="0" y="0" width="32" height="38">
<g id="Group">
<g id="Group_2">
<path id="Vector" d="M27.6667 2.33334H4.33332C3.41285 2.33334 2.66666 3.07954 2.66666 4.00001V34C2.66666 34.9205 3.41285 35.6667 4.33332 35.6667H27.6667C28.5871 35.6667 29.3333 34.9205 29.3333 34V4.00001C29.3333 3.07954 28.5871 2.33334 27.6667 2.33334Z" fill="white" stroke="white" stroke-width="4" stroke-linejoin="round"/>
<path id="Vector_2" d="M13.5 10.6667H23.5M13.5 19H23.5M13.5 27.3334H23.5" stroke="black" stroke-width="4" stroke-linecap="round" stroke-linejoin="round"/>
<path id="Vector_3" fill-rule="evenodd" clip-rule="evenodd" d="M8.49998 12.3333C8.94201 12.3333 9.36593 12.1577 9.67849 11.8452C9.99105 11.5326 10.1666 11.1087 10.1666 10.6667C10.1666 10.2246 9.99105 9.80072 9.67849 9.48816C9.36593 9.1756 8.94201 9 8.49998 9C8.05795 9 7.63403 9.1756 7.32147 9.48816C7.00891 9.80072 6.83331 10.2246 6.83331 10.6667C6.83331 11.1087 7.00891 11.5326 7.32147 11.8452C7.63403 12.1577 8.05795 12.3333 8.49998 12.3333ZM8.49998 20.6667C8.94201 20.6667 9.36593 20.4911 9.67849 20.1785C9.99105 19.8659 10.1666 19.442 10.1666 19C10.1666 18.558 9.99105 18.134 9.67849 17.8215C9.36593 17.5089 8.94201 17.3333 8.49998 17.3333C8.05795 17.3333 7.63403 17.5089 7.32147 17.8215C7.00891 18.134 6.83331 18.558 6.83331 19C6.83331 19.442 7.00891 19.8659 7.32147 20.1785C7.63403 20.4911 8.05795 20.6667 8.49998 20.6667ZM8.49998 29C8.94201 29 9.36593 28.8244 9.67849 28.5118C9.99105 28.1993 10.1666 27.7754 10.1666 27.3333C10.1666 26.8913 9.99105 26.4674 9.67849 26.1548C9.36593 25.8423 8.94201 25.6667 8.49998 25.6667C8.05795 25.6667 7.63403 25.8423 7.32147 26.1548C7.00891 26.4674 6.83331 26.8913 6.83331 27.3333C6.83331 27.7754 7.00891 28.1993 7.32147 28.5118C7.63403 28.8244 8.05795 29 8.49998 29Z" fill="black"/>
</g>
</g>
</mask>
<g mask="url(#mask0_35_31)">
<path id="Vector_4" d="M-4 -1H36V39H-4V-1Z" fill="white"/>
</g>
</g>
</svg>
